# xmcd
#
# Track frame offsets: 
#        150
#        15987
#        34837
#        49140
#        66870
#        82842
#        96238
#        108425
#        131007
#        148725
#        161905
#        183237
#        198612
#        215420
#        233375
#        244730
#        259950
#        269967
#        286630
#        300967
#
# Disc length: 4270 seconds
#
# Revision: 0
# Processed by: cddbd v1.5.2PL0 Copyright (c) Steve Scherf et al.
# Submitted via: ExactAudioCopy v1.0b1
#
DISCID=1c10ac14
DTITLE=Wild Willy Barrett - The Anthology [Disk 2]
DYEAR=2008
DGENRE=Blues
TTITLE0=Old Joe Coral
TTITLE1=Milton Keynes
TTITLE2=Cigarettes and Whiskey
TTITLE3=The Emperor's Head
TTITLE4=Summertime
TTITLE5=Wildwood Traveller
TTITLE6=Louisa on a Horse
TTITLE7=Judge and the Devil
TTITLE8=Crow That Chicken
TTITLE9=Hot Clubbing
TTITLE10=Moose Loose Kickin' (Moose of Kintyre)
TTITLE11=Milton Keynes Special
TTITLE12=Heartbeat of the City
TTITLE13=Cowboy
TTITLE14=Rabbit in Boston
TTITLE15=Krazy Kong
TTITLE16=Bluey Green
TTITLE17=I'm A Dog
TTITLE18=Homestead on the Farm
TTITLE19=Blues Run the Game
EXTD=
EXTT0=
EXTT1=
EXTT2=
EXTT3=
EXTT4=
EXTT5=
EXTT6=
EXTT7=
EXTT8=
EXTT9=
EXTT10=
EXTT11=
EXTT12=
EXTT13=
EXTT14=
EXTT15=
EXTT16=
EXTT17=
EXTT18=
EXTT19=
PLAYORDER=
